<?xml version="1.0" encoding="UTF-8" standalone="no"?>
<svg
   width="13in"
   height="4.5in"
   viewBox="228 154 2000 662"
   background="#0A2E43"
   preserveAspectRatio="square"
   version="1.1"
   id="svg3"
   sodipodi:docname="input.svg"
   inkscape:version="1.4.2 (f4327f4, 2025-05-13)"
   xml:space="preserve"
   xmlns:inkscape="http://www.inkscape.org/namespaces/inkscape"
   xmlns:sodipodi="http://sodipodi.sourceforge.net/DTD/sodipodi-0.dtd"
   xmlns="http://www.w3.org/2000/svg"
   xmlns:svg="http://www.w3.org/2000/svg"><defs
     id="defs3" /><sodipodi:namedview
     id="namedview3"
     pagecolor="#ffffff"
     bordercolor="#000000"
     borderopacity="0.25"
     inkscape:showpageshadow="2"
     inkscape:pageopacity="0.0"
     inkscape:pagecheckerboard="0"
     inkscape:deskcolor="#d1d1d1"
     inkscape:document-units="in"
     inkscape:zoom="1.1522436"
     inkscape:cx="656.5452"
     inkscape:cy="264.70097"
     inkscape:window-width="1536"
     inkscape:window-height="890"
     inkscape:window-x="1073"
     inkscape:window-y="-6"
     inkscape:window-maximized="1"
     inkscape:current-layer="svg3"
     showguides="true" /><path
     id="lg"
     fill="#1e9ba6"
     d="m 688.00743,320.58693 c -102.72553,-103.56258 -269.87357,-103.56258 -372.59946,0 -20.3328,20.49841 -51.13961,-10.50063 -30.77895,-31.03072 120.06269,-121.04061 314.0761,-121.05826 434.15843,0 20.33209,20.50273 -10.4183,51.55829 -30.78002,31.03072 z" /><path
     id="md"
     fill="#1e9ba6"
     d="m 624.7077,385.15827 c -67.05608,-66.19015 -176.1625,-66.19015 -243.21713,0 -20.76989,20.50201 -52.22649,-10.50676 -31.43508,-31.02965 84.64616,-83.55334 221.42945,-83.56306 306.08727,0 20.76735,20.49915 -10.64073,51.55794 -31.43506,31.02965 z" /><path
     id="sm"
     fill="#1e9ba6"
     d="m 556.92644,441.13396 c -30.47745,-28.81735 -80.06869,-28.81735 -110.54616,0 -21.68305,20.50202 -54.52269,-10.50675 -32.81717,-31.02963 48.57328,-45.92752 127.60725,-45.92752 176.18051,0 21.68308,20.50201 -11.11165,51.55289 -32.81718,31.02963 z" /><path
     id="truck"
     fill="#1e9ba6"
     fill-rule="evenodd"
     d="m 334.64278,717.38352 c -5.49401,1.56221 -14.95137,0.9227 -20.95559,0.91357 -18.49559,-0.0274 -30.9505,-7.33594 -30.90495,-27.40703 0,0 0,-183.62709 0,-183.62709 0,0 0,-21.92562 0,-21.92562 0,0 0,-16.44422 0,-16.44422 1.69467,-8.36828 8.43691,-15.30226 16.32715,-17.94246 3.99067,-1.33381 5.93134,-1.23333 10.02223,-1.24246 0,0 143.95581,0 143.95581,0 0,0 72.88901,0 72.88901,0 12.46402,0 23.73449,-2.18342 33.43784,7.58261 9.00178,9.05345 7.56223,20.08023 7.56223,31.70081 0,0 86.5557,0 86.5557,0 19.01493,0.0274 24.70027,11.75761 34.75895,25.57988 0,0 49.09075,66.69044 49.09075,66.69044 10.28646,14.56227 19.07871,21.94389 19.10602,41.11054 0,0 0,58.46833 0,58.46833 0,11.28257 1.43957,21.04859 -7.56221,29.72749 -9.20224,8.87075 -19.84405,7.89323 -31.61561,7.72878 -2.78802,-0.0458 -3.69002,-0.14617 -6.3778,-0.91357 -2.6969,9.3458 -2.37799,12.92699 -6.77868,22.8392 -5.28444,11.92205 -16.43647,22.83919 -27.8436,28.94182 -6.56913,3.50811 -12.73735,5.03375 -20.04448,5.91078 -35.07783,4.22068 -65.46344,-21.59674 -68.33346,-56.77823 0,0 -131.20021,0 -131.20021,0 -0.13668,6.38585 -1.82223,12.36971 -4.19112,18.27135 -8.70113,21.57848 -27.56116,35.75705 -50.47564,38.50688 -3.16157,0.3837 -4.86535,0.88616 -8.20002,0.69431 -33.29206,-1.89108 -56.53455,-25.16878 -59.22232,-58.38611 z m 199.53367,-233.8733 c 0,0 -219.57815,0 -219.57815,0 0,0 0,202.81201 0,202.81201 0,0 18.22226,0 18.22226,0 2.14111,0 5.12045,0.20099 6.98823,-0.93184 2.19577,-1.3338 4.56468,-5.93819 6.09534,-8.20384 2.82446,-4.175 6.06801,-7.46385 9.69424,-10.92627 9.82179,-9.3732 28.15337,-17.22076 41.91118,-16.18842 15.94447,1.19679 27.78894,5.56363 39.81563,16.47163 3.51689,3.18835 7.31623,7.6283 9.96757,11.55663 1.312,1.93676 3.56244,6.1483 5.36645,7.31767 1.74023,1.1237 4.76511,0.90444 6.80601,0.90444 0,0 74.71124,0 74.71124,0 z M 724.599,686.32223 c 0,0 0,-56.64119 0,-56.64119 -0.0182,-13.39291 -6.19557,-18.0247 -13.77603,-28.3206 0,0 -31.88894,-42.93768 -31.88894,-42.93768 0,0 -18.81447,-25.57989 -18.81447,-25.57989 -6.02246,-7.91149 -6.01334,-11.85811 -16.60958,-11.87638 0,0 -76.53347,0 -76.53347,0 0,0 0,165.35574 0,165.35574 0,0 19.13337,0 19.13337,0 1.95888,0 5.06578,0.23752 6.71489,-0.90444 1.40312,-0.96837 3.47135,-4.80537 4.54646,-6.4041 2.31422,-3.44415 6.70579,-8.8342 9.73069,-11.61145 12.12691,-11.15466 25.40182,-16.85532 41.87472,-16.96495 15.18826,-0.0913 29.78427,5.50882 41.00008,15.86867 3.83578,3.54465 7.33446,7.45471 10.25002,11.79416 1.476,2.19256 3.23444,5.993 5.43024,7.29027 1.90422,1.12368 4.9291,0.93184 7.09756,0.93184 z M 631.66552,539.10995 c 10.12244,0.18271 11.1429,4.41253 16.73713,12.00427 0,0 23.61603,32.88844 23.61603,32.88844 2.43268,3.41674 9.84914,13.17364 10.94248,16.44421 2.97934,8.91642 -3.49868,10.04012 -10.29558,10.04926 0,0 -58.31121,0 -58.31121,0 -2.41446,0 -4.94735,0.10049 -7.28891,-0.5847 -13.50269,-3.91007 -12.58246,-15.70423 -12.87402,-26.82235 0,0 0,-24.66632 0,-24.66632 0.0182,-9.63814 -2.20489,-19.00221 11.05181,-19.31281 z M 393.8651,682.05587 c -11.04269,1.65355 -19.04226,5.7646 -24.48159,16.14274 -10.03136,19.16665 2.23221,44.22581 24.48159,45.59615 34.37628,2.11034 43.71519,-45.45912 14.5778,-58.82462 -4.38245,-2.00985 -9.78535,-3.03304 -14.5778,-2.91427 z m 253.28933,-0.0365 c -9.11113,1.38861 -16.64604,4.75968 -22.20382,12.525 -13.96736,19.54121 -1.16622,47.8344 23.11493,49.25043 27.77982,1.61702 41.89296,-33.50052 22.74137,-52.86815 -3.07956,-3.11526 -6.73311,-5.80115 -10.89691,-7.24459 -3.79935,-1.32467 -8.7649,-1.95503 -12.75557,-1.66269 z" /><text
     style="font-weight:600;font-size:241.35px;line-height:0;font-family:Inter;letter-spacing:-13.1571px;white-space:pre;fill:#0a2e43;stroke-width:8.61968"
     transform="scale(0.99057489,1.0095148)"
     id="text2"
     x="-6527.9985"
     y="-2838.4297"><tspan
       x="853.46381"
       id="tspan1"
       style="font-style:normal;font-variant:normal;font-weight:bold;font-stretch:normal;line-height:0;font-family:Inter;-inkscape-font-specification:'Inter Bold';letter-spacing:-13.1571px;stroke-width:8.61968"
       y="537.16193">F<tspan
   style="letter-spacing:-0.480769px"
   id="tspan56">l</tspan><tspan
   style="letter-spacing:4.55128px"
   id="tspan57">e</tspan><tspan
   style="letter-spacing:-1.39423px"
   id="tspan58">e</tspan><tspan
   style="letter-spacing:-6.90705px"
   id="tspan59">t</tspan><tspan
   style="letter-spacing:-17.0513px"
   id="tspan60">T</tspan><tspan
   style="letter-spacing:-5.89744px"
   id="tspan62">r</tspan><tspan
   style="letter-spacing:2.51603px"
   id="tspan63">a</tspan><tspan
   style="letter-spacing:-8.66987px"
   id="tspan64">c</tspan>k</tspan></text><text
     style="font-weight:800;font-size:154.546px;font-family:'Inter Tight';letter-spacing:1.92308px;white-space:pre;inline-size:1080.12;display:inline;fill:#0a2e43;stroke-width:6.22992"
     transform="matrix(1.0056724,0,0,1.0028466,72.692668,-68.273777)"
     id="text3"
     y="786.09515"
     x="775.40582"
     xml:space="preserve"><tspan
       x="775.40582"
       y="786.09515"
       id="tspan30"><tspan
         style="font-weight:600;-inkscape-font-specification:'Inter Tight Semi-Bold'"
         id="tspan2">S</tspan><tspan
         style="font-size:81.6188px"
         id="tspan4"> </tspan><tspan
         style="font-weight:bold;-inkscape-font-specification:'Inter Tight Bold'"
         id="tspan5">O</tspan><tspan
         style="font-size:112.768px"
         id="tspan6"> </tspan><tspan
         style="font-size:153.194px"
         id="tspan14">L</tspan><tspan
         style="font-size:102.129px"
         id="tspan18"> </tspan><tspan
         style="font-size:153.194px"
         id="tspan19">U</tspan><tspan
         style="font-size:90.4269px"
         id="tspan20"> </tspan><tspan
         style="font-size:153.194px"
         id="tspan21">T</tspan><tspan
         style="font-size:112.768px"
         id="tspan22"> </tspan><tspan
         style="font-size:153.194px"
         id="tspan23">I</tspan><tspan
         style="font-size:127.661px"
         id="tspan24"> </tspan><tspan
         style="font-size:153.194px"
         id="tspan25">O</tspan><tspan
         style="font-size:136.172px"
         id="tspan26"> </tspan><tspan
         style="font-size:153.194px"
         id="tspan27">N</tspan><tspan
         style="font-size:123.406px"
         id="tspan28"> </tspan><tspan
         style="font-size:153.194px"
         id="tspan29">S</tspan></tspan></text></svg>
